<svg xmlns="http://www.w3.org/2000/svg" viewBox="4259.284 3997.365 201.12 201.12">
  <defs>
    <style>
      .cls-1 {
        fill: #fff;
      }

      .cls-2, .cls-4 {
        fill: none;
      }

      .cls-2 {
        stroke: #fff;
        stroke-width: 10px;
      }

      .cls-3 {
        stroke: none;
      }
    </style>
  </defs>
  <g id="_18_toneladas" data-name="18_toneladas" transform="translate(4172)">
    <g id="Group_8" data-name="Group 8" transform="translate(141.371 4025.758)">
      <path id="Path_17" data-name="Path 17" class="cls-1" d="M103.335,162.5a4.015,4.015,0,0,0-3.148,1.29A4.53,4.53,0,0,0,99,167.144a4.794,4.794,0,0,0,1.187,3.406,4.276,4.276,0,0,0,3.2,1.238,4.158,4.158,0,0,0,3.148-1.238,5.161,5.161,0,0,0,0-6.708A4.065,4.065,0,0,0,103.335,162.5Z" transform="translate(-47.914 -78.698)"/>
      <path id="Path_18" data-name="Path 18" class="cls-1" d="M104.064,145.211a3.33,3.33,0,0,0,2.683-1.135,4.551,4.551,0,0,0,.98-3.1,4.5,4.5,0,0,0-.98-3.045,3.33,3.33,0,0,0-2.683-1.135,3.262,3.262,0,0,0-2.683,1.135,4.68,4.68,0,0,0-.98,3.045,4.551,4.551,0,0,0,.98,3.1A3.2,3.2,0,0,0,104.064,145.211Z" transform="translate(-48.592 -66.26)"/>
      <path id="Path_19" data-name="Path 19" class="cls-1" d="M80.754,204.7a2.777,2.777,0,0,0-2.529,1.29A6.171,6.171,0,0,0,77.4,209.4v.206a6.171,6.171,0,0,0,.826,3.406,2.777,2.777,0,0,0,2.529,1.29,2.864,2.864,0,0,0,2.58-1.29,6.171,6.171,0,0,0,.877-3.406V209.4a6.171,6.171,0,0,0-.877-3.406A2.921,2.921,0,0,0,80.754,204.7Z" transform="translate(-37.46 -99.122)"/>
      <path id="Path_20" data-name="Path 20" class="cls-1" d="M82.305,128.306c-2.064-1.548,15.223-13.675-8-40.766-3.1-3.664-5.883-6.966-8.411-10.062l-1.7-.877-.1-.1C58.465,69.686,48.3,54.309,46.029,50.8l-1.238,1.032a4.714,4.714,0,0,1,2.529,2.477,5.059,5.059,0,0,1-.671,4.489,4.034,4.034,0,0,1,1.393,3.148,3.81,3.81,0,0,1-2.167,2.838,2.7,2.7,0,0,1,.619.877c.464,1.084.155,2.477-.98,4.077l-.1.1L32.767,75.259l-.31-.1c-.052,0-.206-.1-.516-.206a52.1,52.1,0,0,1-7.74,4.077S-4.18,101.989,8.463,132.176L0,151.269s5.934,3.354,18.061,2.58c0,0,20.9,7.482,47.99,2.064,0,0,8,3.612,22.7-.258C88.756,155.655,84.369,129.854,82.305,128.306ZM25.233,92.856l11.61-2.116v26.885l5.315.671v3.767H25.285V118.3l5.315-.671V96.416H25.233Zm11.249,39.011H34.419l-.1-1.5H31.838v9.443l1.445.258v1.6H27.71v-1.6l1.445-.258V130.37H26.678l-.1,1.5H24.511v-3.561H36.483Zm12.9,3.251a7.179,7.179,0,0,1-1.7,4.9,5.563,5.563,0,0,1-4.438,1.909,5.458,5.458,0,0,1-4.386-1.909,7.312,7.312,0,0,1-1.651-4.9v-.206a7.268,7.268,0,0,1,1.651-4.851,5.5,5.5,0,0,1,4.386-1.961,5.678,5.678,0,0,1,4.438,1.961,7.045,7.045,0,0,1,1.7,4.851Zm14.81-5.212-1.445.258v11.559H60.065l-5.418-9.03h-.052v7.121l1.445.258v1.6H50.467v-1.6l1.445-.258v-9.65l-1.445-.258v-1.6h4.128l5.418,9.03h.052v-7.121l-1.445-.258v-1.651h5.573Zm-1.032-9.7a12.078,12.078,0,0,1-7.689,2.322,12.131,12.131,0,0,1-7.74-2.322,7.982,7.982,0,0,1-2.941-6.657,7.193,7.193,0,0,1,1.445-4.489,8.885,8.885,0,0,1,3.922-2.993,8.023,8.023,0,0,1-3.406-2.838A7.087,7.087,0,0,1,45.513,99.1a7.941,7.941,0,0,1,2.735-6.45,10.731,10.731,0,0,1,7.224-2.27,11.1,11.1,0,0,1,7.224,2.27,7.857,7.857,0,0,1,2.735,6.45,7.087,7.087,0,0,1-1.238,4.128,8.407,8.407,0,0,1-3.406,2.838,9.276,9.276,0,0,1,3.922,2.993,7.193,7.193,0,0,1,1.445,4.489A8.307,8.307,0,0,1,63.161,120.2Z" transform="translate(0 -24.638)"/>
      <path id="Path_21" data-name="Path 21" class="cls-1" d="M47.9,16.458a4.01,4.01,0,0,1,.826-.1h.258l4.541,3.251c7.9-2.941,9.443-4.438,9.7-4.747v-.1l.155-.206a5.389,5.389,0,0,1,4.077-1.909h0A6.957,6.957,0,0,1,72.106,14.7a26.727,26.727,0,0,1,7.379-2.735C94.965,8.356,82.581.1,82.581.1s0,7.224-11.352,5.676c0,0-3.612-5.676-9.546-2.838l-.258,4.644s-.258,4.644-8.514-2.322L50.846,7.066C50.846,7.015,29.792,2.422,47.9,16.458Z" transform="translate(-19.626 -0.1)"/>
      <path id="Path_22" data-name="Path 22" class="cls-1" d="M53.428,42.392l3.715,1.445v-6.3L53.066,34.6a4.059,4.059,0,0,0-2.838,2.374l-.052.052a2.583,2.583,0,0,0-.1,2.374A7.411,7.411,0,0,0,53.428,42.392Z" transform="translate(-24.118 -16.797)"/>
      <path id="Path_23" data-name="Path 23" class="cls-1" d="M47.931,55.235a3.888,3.888,0,0,0,1.961,4.18l6.863-.155c-.052-.155-.052-.31-.1-.413-.155-.671-.31-1.445-.464-2.167-.155-.929-.258-1.909-.361-2.632V54l-3.87-1.5H51.9C51.233,52.5,48.4,52.655,47.931,55.235Z" transform="translate(-23.162 -25.461)"/>
      <path id="Path_24" data-name="Path 24" class="cls-1" d="M97.7,39.994c-.568-.155-6.4-1.909-11.972-9.03a13.163,13.163,0,0,0-2.167-2.27A5.235,5.235,0,0,0,80.313,27.3h0a4.085,4.085,0,0,0-2.787,1.238C76.7,30.241,71.541,32.46,67,34.111h0V44.69a3.288,3.288,0,0,0,.361,1.393,3.787,3.787,0,0,0,.722.929l2.735-.052A11.126,11.126,0,0,0,72.263,44.9l1.548-3.457.052-.155h.052l.206-.155,1.393-1.187h0l3.1-2.58.258-.206.464.722c.1.206,12.023,18.474,18.37,26.162L124.9,78.18V49.85Z" transform="translate(-32.427 -13.264)"/>
      <path id="Path_25" data-name="Path 25" class="cls-1" d="M60.352,68.255l-1.29.052-8.618.206h0c-1.032,1.5-1.342,2.735-.98,3.715a4.377,4.377,0,0,0,2.683,2.116l14.6-2.064.774-.1h.1l.929-.155c.826-.413,1.754-1.032,1.858-1.858s-.671-1.651-1.135-2.064H67.731l-4.9.1H62Z" transform="translate(-23.869 -33.011)"/>
      <path id="Path_26" data-name="Path 26" class="cls-1" d="M71.191,78.9l-1.754.258L57.052,81.016a4.528,4.528,0,0,0,.052,3.2,6.487,6.487,0,0,0,3.1,2.941l2.89-1.238L71.861,82.2c.671-1.032.929-1.858.722-2.374A1.935,1.935,0,0,0,71.191,78.9Z" transform="translate(-27.484 -38.238)"/>
      <path id="Path_27" data-name="Path 27" class="cls-1" d="M83.393,60.112a3.981,3.981,0,0,0,.671-3.3A3.913,3.913,0,0,0,81.587,54.9h0l-.722.619-.155.361-1.342,2.993-.568,1.29h0l3.251-.052h1.342Z" transform="translate(-38.138 -26.622)"/>
    </g>
    <g id="Ellipse_15" data-name="Ellipse 15" class="cls-2" transform="translate(87.284 3997.365)">
      <ellipse class="cls-3" cx="100.56" cy="100.56" rx="100.56" ry="100.56"/>
      <ellipse class="cls-4" cx="100.56" cy="100.56" rx="95.56" ry="95.56"/>
    </g>
  </g>
</svg>
