<svg xmlns="http://www.w3.org/2000/svg" viewBox="5057.254 3997.365 201.12 201.12">
  <defs>
    <style>
      .cls-1 {
        fill: #fff;
      }

      .cls-2, .cls-4 {
        fill: none;
      }

      .cls-2 {
        stroke: #fff;
        stroke-width: 10px;
      }

      .cls-3 {
        stroke: none;
      }
    </style>
  </defs>
  <g id="valorizacao" transform="translate(4172)">
    <g id="Group_11" data-name="Group 11" transform="translate(939.881 4025.758)">
      <ellipse id="Ellipse_13" data-name="Ellipse 13" class="cls-1" cx="12.658" cy="12.658" rx="12.658" ry="12.658" transform="translate(33.311 0)"/>
      <path id="Path_38" data-name="Path 38" class="cls-1" d="M78.429,123.081V74.922c1.523-.381,2.665-1.142,2.76-2.57.19-2.57-1.047-3.141-2.76-3.521V57.981H75.288v9.9a7.506,7.506,0,0,1-2.379-1.332c-4-3.141-4.854-18.369-4.854-18.369-.1-.666-.1-1.332-.19-2a12.953,12.953,0,0,0,.476-3.426,12.678,12.678,0,0,0-9.422-12.278V30H35.41v.1A12.57,12.57,0,0,0,26.178,36h0a12.454,12.454,0,0,0-1.9,6.757,12.04,12.04,0,0,0,.286,2.665c-.1.857-.19,1.808-.286,2.665,0,0-.857,15.228-4.854,18.369A8.292,8.292,0,0,1,17.707,67.5V33.9H14.567V68.641c-2.094.476-3.617.857-3.521,3.712.1,1.618,1.523,2.379,3.521,2.76v35.5A7.693,7.693,0,0,0,12,111.66h0l-.1.1a5.231,5.231,0,0,0-.857.666,4.139,4.139,0,0,0-.571.666l-6.757,5.9a7.11,7.11,0,0,0-1.332,1.142h0a8.671,8.671,0,0,0-2.284,6,8.3,8.3,0,0,0,7.995,8.566H21.9c4.473,0,7.995-3.807,7.995-8.566a8.619,8.619,0,0,0-1.332-4.664h0a8.182,8.182,0,0,0-1.713-1.9l-3.712-4.188a8.143,8.143,0,0,0-5.615-4.664V75.493a37.156,37.156,0,0,0,6.567-.666s4.568-1.428,6.282-20.843v72.523a6.853,6.853,0,0,0,13.705,0V78.063h3.141v48.254a6.853,6.853,0,1,0,13.705,0V54.174c.19-.1.286-.19.476-.286,1.713,19.225,6.282,20.748,6.282,20.748a37.789,37.789,0,0,0,7.233.666v47.778H63.01v4.854H91.563v-4.854H78.429Z" transform="translate(-0.1 -1.448)"/>
      <rect id="Rectangle_76" data-name="Rectangle 76" class="cls-1" width="28.552" height="4.283" transform="translate(62.91 127.439)"/>
    </g>
    <g id="Ellipse_18" data-name="Ellipse 18" class="cls-2" transform="translate(885.254 3997.365)">
      <ellipse class="cls-3" cx="100.56" cy="100.56" rx="100.56" ry="100.56"/>
      <ellipse class="cls-4" cx="100.56" cy="100.56" rx="95.56" ry="95.56"/>
    </g>
  </g>
</svg>
