<svg xmlns="http://www.w3.org/2000/svg" viewBox="5329.076 3992.041 201.12 201.12">
  <defs>
    <style>
      .cls-1 {
        fill: #fff;
      }

      .cls-2 {
        fill: #060606;
      }

      .cls-3, .cls-5 {
        fill: none;
      }

      .cls-3 {
        stroke: #fff;
        stroke-width: 10px;
      }

      .cls-4 {
        stroke: none;
      }
    </style>
  </defs>
  <g id="comunidade_limpa" transform="translate(4172)">
    <g id="Group_12" data-name="Group 12" transform="translate(1196.702 4041.082)">
      <path id="Path_39" data-name="Path 39" class="cls-1" d="M87.271,71.754H81.129L81,68.747a28.262,28.262,0,0,0-28.28-26.808v-3.2h0v-3.2a28.3,28.3,0,0,0,16.187-5.119c-2.687-2.175-5.31-4.415-8-6.59-4.223-3.519-6.334-3.455-10.557.064-13.116,10.877-26.36,21.69-39.413,32.631C7.166,59.726,2.751,62.285,0,66.572v2.943c1.408,3.2,3.839,4.479,7.23,4.287,2.367-.128,4.8.064,7.166-.064,1.664-.128,2.047.512,2.047,2.047-.064,8.893-.064,17.787-.064,26.744,0,4.863,2.047,6.91,6.91,6.974,5.119.064,10.237,0,15.356,0,5.758,0,7.486-1.728,7.55-7.486.064-5.183-.448-10.429.256-15.548a9.319,9.319,0,0,1,18.491.32c.576,5.246.128,10.557.256,15.8.064,4.927,1.919,6.846,6.91,6.91H87.719c5.31,0,7.294-1.983,7.294-7.294,0-8.574.128-17.147-.064-25.721-.064-2.367.768-2.879,2.879-2.751a66.932,66.932,0,0,0,7.166,0c3.391-.064,5.119-1.216,6.142-3.967.832-2.431.064-4.479-2.5-6.59-4.671-3.9-9.405-7.806-14.076-11.645a27.878,27.878,0,0,0-6.974,17.211Z" transform="translate(0 -7.645)"/>
      <path id="Path_40" data-name="Path 40" class="cls-2" d="M82.4,48.6Z" transform="translate(-29.679 -17.505)"/>
      <path id="Path_42" data-name="Path 42" class="cls-1" d="M113.879,0h0a31.365,31.365,0,0,1-12.732,24.889A31.245,31.245,0,0,1,82.4,31.1a31.422,31.422,0,0,1,31.415,29.815h.064a31.47,31.47,0,0,1,29.432-29.752v-.128A31.515,31.515,0,0,1,113.879,0Z" transform="translate(-29.679)"/>
    </g>
    <g id="Ellipse_19" data-name="Ellipse 19" class="cls-3" transform="translate(1157.076 3992.041)">
      <ellipse class="cls-4" cx="100.56" cy="100.56" rx="100.56" ry="100.56"/>
      <ellipse class="cls-5" cx="100.56" cy="100.56" rx="95.56" ry="95.56"/>
    </g>
  </g>
</svg>
