<svg xmlns="http://www.w3.org/2000/svg" viewBox="5815.594 3999.139 201.12 201.12">
  <defs>
    <style>
      .cls-1 {
        fill: #fff;
      }

      .cls-2, .cls-4 {
        fill: none;
      }

      .cls-2 {
        stroke: #fff;
        stroke-width: 10px;
      }

      .cls-3 {
        stroke: none;
      }
    </style>
  </defs>
  <g id="Moradores_com_atirude" transform="translate(4172)">
    <g id="Group_14" data-name="Group 14" transform="translate(1704.601 4027.533)">
      <ellipse id="Ellipse_14" data-name="Ellipse 14" class="cls-1" cx="12.551" cy="12.551" rx="12.551" ry="12.551" transform="translate(24.88 5.768) rotate(-13.286)"/>
      <path id="Path_47" data-name="Path 47" class="cls-1" d="M79.081,72.665,55.961,32.559a4.494,4.494,0,0,0-3.3-2.265V30.2H29.444v.094a.347.347,0,0,0-.283.094,4.814,4.814,0,0,0-5.285,2.265L.662,72.665A4.127,4.127,0,0,0,.1,75.591H10.948L24.537,52V75.685H55.018V51.716L68.8,75.591H79.648A4.127,4.127,0,0,0,79.081,72.665Z" transform="translate(-0.025 0.848)"/>
      <path id="Path_48" data-name="Path 48" class="cls-1" d="M43.8,130.428a6.794,6.794,0,0,0,13.589,0V117.5H43.8Z" transform="translate(-2.491 -4.069)"/>
      <path id="Path_49" data-name="Path 49" class="cls-1" d="M26,130.428a6.794,6.794,0,0,0,13.589,0V117.5H26Z" transform="translate(-1.488 -4.069)"/>
      <path id="Path_50" data-name="Path 50" class="cls-1" d="M55.084,80.4H1.2v1.416H78.864V80.4H55.084Z" transform="translate(-0.091 -1.98)"/>
      <path id="Path_51" data-name="Path 51" class="cls-1" d="M41.8,85.3H8.3v28.593H72.47V85.3H41.8ZM31.609,98.228a8.163,8.163,0,0,0-.944-.661v-.094h4.624c.189,0,.377,0,.472.283.755,1.321,1.416,2.737,2.17,4.058V102a8.3,8.3,0,0,1-.944-.566c-.283-.189-.377-.094-.472.189-.472.849-1.038,1.7-1.51,2.454-.094.094-.094.283-.283.283a4.8,4.8,0,0,1-3.208-.755,1.983,1.983,0,0,1-.566-2.737,16.4,16.4,0,0,1,.944-1.793C31.986,98.606,31.892,98.417,31.609,98.228Zm8.4,11.7c0,.283,0,.472-.377.377H35.95a2.552,2.552,0,0,1-2.548-1.6c-.755-1.51-1.51-2.925-2.359-4.341a.329.329,0,0,0-.094-.189,5.335,5.335,0,0,0,3.4.755h5.19c.283,0,.472.094.472.377C40.007,106.91,40.007,108.42,40.007,109.93ZM41.8,92.661c-.944,1.7-1.887,3.3-2.737,5-.189.283-.283.377-.566.189-1.321-.755-2.642-1.51-3.963-2.17-.283-.189-.377-.283-.189-.566a25.421,25.421,0,0,0,1.51-2.737,13.8,13.8,0,0,1,.849-1.227,2.07,2.07,0,0,1,1.6-.661h5.756A4.23,4.23,0,0,0,41.8,92.661Zm.283.849c.566-1.038,1.132-2.17,2.454-2.548a1.813,1.813,0,0,1,2.359.849c.377.661.849,1.227,1.227,1.887.189.283.283.283.566.189.377-.189.755-.283,1.132-.472a.092.092,0,0,0,.094.094c-.755,1.321-1.416,2.737-2.17,4.058-.094.094-.189.189-.283.189H42.65v-.189L43.5,97c.377-.189.377-.283.189-.661-.472-.849-.944-1.6-1.416-2.454C42.084,93.887,41.989,93.7,42.084,93.51ZM49.255,108.8a1.686,1.686,0,0,1-1.887,1.416c-.755,0-1.416.094-2.17.094a.446.446,0,0,0-.472.472c0,.377-.094.755-.094,1.227-.189,0-.189-.189-.283-.283-.755-1.132-1.416-2.265-2.17-3.4a.574.574,0,0,1,0-.755c.755-1.227,1.416-2.454,2.076-3.586a.715.715,0,0,0,.189-.377h.094v1.038c0,.283.094.377.377.377H47.84a.673.673,0,0,1,.566.283,9.518,9.518,0,0,1,.849,1.7A2.906,2.906,0,0,1,49.255,108.8Zm3.963-5.945c-1.038,1.793-2.076,3.68-3.114,5.473a.092.092,0,0,1-.094-.094,3.938,3.938,0,0,0-.849-3.02c-1.038-1.6-1.887-3.114-2.925-4.718-.189-.283-.189-.377.094-.566,1.321-.755,2.642-1.6,3.869-2.454.189-.094.283-.283.472,0,.661,1.227,1.51,2.359,2.17,3.586l.283.849A4.333,4.333,0,0,1,53.219,102.852Z" transform="translate(-0.491 -2.256)"/>
    </g>
    <g id="Ellipse_21" data-name="Ellipse 21" class="cls-2" transform="translate(1643.594 3999.139)">
      <ellipse class="cls-3" cx="100.56" cy="100.56" rx="100.56" ry="100.56"/>
      <ellipse class="cls-4" cx="100.56" cy="100.56" rx="95.56" ry="95.56"/>
    </g>
  </g>
</svg>
