<svg xmlns="http://www.w3.org/2000/svg" viewBox="5574.25 3992.041 201.12 201.12">
  <defs>
    <style>
      .cls-1 {
        fill: #fff;
      }

      .cls-2, .cls-4 {
        fill: none;
      }

      .cls-2 {
        stroke: #fff;
        stroke-width: 10px;
      }

      .cls-3 {
        stroke: none;
      }
    </style>
  </defs>
  <g id="cacambas_de_lixo" transform="translate(4172)">
    <g id="Group_13" data-name="Group 13" transform="translate(1454.028 4041.729)">
      <path id="Path_43" data-name="Path 43" class="cls-1" d="M89.3,12.607c-13.358.223-26.716,0-40.074,0-13.8,0-27.384.223-41.187,0-6.9,0-10.464,2.226-6.234,8.905C10.487,34.87,13.6,49.119,12.046,64.7c-.668,6.234,2.672,8.237,8.683,8.237,18.478-.223,37.18-.223,55.658,0,7.347.223,10.241-3.117,9.573-10.018-1.336-14.694.891-28.72,9.128-41.187C99.54,15.056,96.646,12.384,89.3,12.607Z" transform="translate(0.019 15.667)"/>
      <path id="Path_44" data-name="Path 44" class="cls-1" d="M33.988,40.4a5.788,5.788,0,1,0,5.788,5.788A5.894,5.894,0,0,0,33.988,40.4Z" transform="translate(34.625 49.766)"/>
      <path id="Path_45" data-name="Path 45" class="cls-1" d="M15.988,40.4a5.788,5.788,0,1,0,0,11.577,5.894,5.894,0,0,0,5.788-5.788A5.748,5.748,0,0,0,15.988,40.4Z" transform="translate(12.551 49.766)"/>
      <path id="Path_46" data-name="Path 46" class="cls-1" d="M10.7,23.054a12.726,12.726,0,0,0-1.781,1.558H73.925a8.112,8.112,0,0,0-2.449-2.226,5.818,5.818,0,0,0,3.117-5.121A5.894,5.894,0,0,0,68.8,11.477h-.668A6.314,6.314,0,0,0,65.688,9.7a5.365,5.365,0,0,0,1.558-4.007,5.788,5.788,0,0,0-11.577,0,5.371,5.371,0,0,0,1.558,3.785,3.3,3.3,0,0,0-1.558-.223h0a5.894,5.894,0,0,0-5.788-5.788,5.963,5.963,0,0,0-5.788,5.121A6.163,6.163,0,0,0,41.2,7.915a6.046,6.046,0,0,0-3.785,1.336,5.566,5.566,0,0,0-6.679,0,2.824,2.824,0,0,0-1.336.223,5.512,5.512,0,0,0-4.675-2.449,5.744,5.744,0,0,0-5.566,4.453h-.445a6.727,6.727,0,0,0-3.562,1.113,5.056,5.056,0,0,0-3.562-1.336A5.894,5.894,0,0,0,5.8,17.043,6.457,6.457,0,0,0,10.7,23.054Z" transform="translate(7.155 0.1)"/>
    </g>
    <g id="Ellipse_20" data-name="Ellipse 20" class="cls-2" transform="translate(1402.25 3992.041)">
      <ellipse class="cls-3" cx="100.56" cy="100.56" rx="100.56" ry="100.56"/>
      <ellipse class="cls-4" cx="100.56" cy="100.56" rx="95.56" ry="95.56"/>
    </g>
  </g>
</svg>
