<svg xmlns="http://www.w3.org/2000/svg" viewBox="2124 5739.912 34.088 34.088">
  <defs>
    <style>
      .cls-1 {
        fill: #e67816;
      }
    </style>
  </defs>
  <path id="facebook" class="cls-1" d="M26.044,393.065H13.961c-.024-.1-.109-.073-.182-.085a5.292,5.292,0,0,1-1.977-.788,6.042,6.042,0,0,1-2.56-3.3A3.317,3.317,0,0,0,9,388.055V363.988c.1-.036.061-.121.073-.182a5.544,5.544,0,0,1,.788-2.014,5.632,5.632,0,0,1,4.864-2.8c7.533-.024,15.078-.012,22.612-.012a5.343,5.343,0,0,1,1.806.315,6.029,6.029,0,0,1,3.943,5.6c-.036,7.375-.012,14.751,0,22.126a5.861,5.861,0,0,1-.886,3.251,5.99,5.99,0,0,1-3.251,2.535,7.95,7.95,0,0,0-.922.255H31.381a1.337,1.337,0,0,1-.024-.218q0-6.2-.012-12.41c0-.218.073-.255.267-.255,1.71.012,3.409,0,5.119.012.23,0,.315-.036.3-.291-.012-1.71-.012-3.409,0-5.119,0-.218-.049-.291-.279-.291-1.274.012-2.535,0-3.809,0h-1.38c-.1,0-.206.036-.206-.133.012-.813-.049-1.638.036-2.45a1.274,1.274,0,0,1,1.371-1.213c1.334.049,2.669.012,4,.012.194,0,.279-.024.279-.267q-.018-2.584,0-5.168c0-.194-.036-.267-.255-.255-1.419.012-2.851,0-4.27.012a5.6,5.6,0,0,0-3.312,1.055,7.423,7.423,0,0,0-3.057,5.01,19.542,19.542,0,0,0-.1,3.154c0,.218-.073.267-.267.267-1.213-.012-2.426,0-3.651-.012-.194,0-.267.049-.267.255q.018,2.584,0,5.168c0,.218.061.279.279.267,1.189-.012,2.378,0,3.566-.012.255,0,.34.036.34.328Q26.038,386.788,26.044,393.065Z" transform="translate(2115 5380.935)"/>
</svg>
