<svg xmlns="http://www.w3.org/2000/svg" viewBox="4794.025 3997.365 201.12 201.12">
  <defs>
    <style>
      .cls-1 {
        fill: #fff;
      }

      .cls-2, .cls-4 {
        fill: none;
      }

      .cls-2 {
        stroke: #fff;
        stroke-width: 10px;
      }

      .cls-3 {
        stroke: none;
      }
    </style>
  </defs>
  <g id="melhor_relacao" transform="translate(4172)">
    <g id="Group_10" data-name="Group 10" transform="translate(677.674 4031.082)">
      <path id="Path_32" data-name="Path 32" class="cls-1" d="M101.108,58.884c-.889-6.666-4.444-11.925-8.962-16.665a1.133,1.133,0,0,0-1.333-.3,5.857,5.857,0,0,1-4.74-.222c-2.74-1.259-5.555-2.518-8.3-3.851-2-.963-2-1.037-3.555.444-.444.444-.741.518-1.259,0a17.708,17.708,0,0,0-1.7-1.629,2.706,2.706,0,0,0-3.111-.444c-.889.444-1.7.889-2.518,1.333-.148.074-.593.37-.593-.074,0-.667-.37-1.481.593-1.852a13.663,13.663,0,0,0,1.185-.741A16.173,16.173,0,0,1,59.631,28c-.3-.518-.667-.37-.963-.074-1.407,1.481-2.815.963-4.148-.074-.148-.074-.222-.148-.37-.222-.518-.37-.815-.222-1.037.3a13.263,13.263,0,0,1-1.629,2.518,15.715,15.715,0,0,1-4.666,3.925c-.222.148-.963.3-.148.741,3.629,1.926,7.11,4,10.665,6a1.85,1.85,0,0,1,1.111,1.852c-.074,8.147,0,16.22,0,24.368a34.869,34.869,0,0,0,.222,3.925c.148,1.333.741,2.592.741,3.925v58.068a6.5,6.5,0,0,0,4.3,6.592c.222.074.444.148.444.37h2.963c.074,0,.148-.074.222-.074h0a9.722,9.722,0,0,0,3.333-2.074,6.915,6.915,0,0,0,1.555-4.74v-51.7a.415.415,0,0,1,.444-.37c.222,0,.444.074.444.37v50.957c0,3.481,1.185,6.073,4.592,7.333.074.074.148.222.222.3h2.963a28.415,28.415,0,0,0,2.592-1.333A6.924,6.924,0,0,0,86,133.1V82.659c0-.37-.148-.815.148-1.185.667.444.889,1.111,1.481,1.555a5.53,5.53,0,0,0,8.444-2.222,47.934,47.934,0,0,0,3.481-8.3A29.338,29.338,0,0,0,101.108,58.884Zm-13.48,8.666H59.483v-9.48H87.628Zm1.037,3.333V56.069C91.109,58.736,90.887,67.7,88.665,70.882Z" transform="translate(-11.843 -7.112)"/>
      <path id="Path_33" data-name="Path 33" class="cls-1" d="M41.864,44.021a5.882,5.882,0,0,1-2.74-1.037,72.931,72.931,0,0,0-6.592-3.851,2.263,2.263,0,0,0-1.407-.148c-1.185.222-1.778,1.185-2.592,1.926-1.111.963-1.111,1.037-2.222-.074a1.612,1.612,0,0,0-2.148-.444c-2.963,1.407-5.925,2.74-8.888,4.148a6.351,6.351,0,0,1-5.185.37,1.176,1.176,0,0,0-1.481.444c-.963,1.111-2,2.222-2.963,3.333A25.211,25.211,0,0,0-.131,62.908,30.89,30.89,0,0,0,1.128,74.24a44.985,44.985,0,0,0,4,9.554c2.074,3.629,6.222,4.074,9.036,1.037.148-.148.222-.3.518-.148v51.328a6.835,6.835,0,0,0,2.592,5.851c.815.593,1.852.667,2.592,1.333h2.148c.074-.074.148-.074.3-.074a18.1,18.1,0,0,0,1.778-.741,6.193,6.193,0,0,0,3.481-5.259,14.272,14.272,0,0,0,.074-1.778v-49.7c0-.444-.37-1.333.444-1.333.889,0,.518.889.518,1.333,0,16.665.074,33.33,0,50.069,0,3.851,1.7,6.444,5.185,7.407.074,0,.148.148.222.222h1.926a22.589,22.589,0,0,0,3.037-1.407,6.784,6.784,0,0,0,2.518-5.7V78.61a4.1,4.1,0,0,1,.148-1.333,14.651,14.651,0,0,0,.815-5.036c.074-9.11,0-18.22.074-27.4C42.679,44.317,42.457,44.1,41.864,44.021ZM12.238,72.388c-1.555-4.222-2.148-8.518-.222-12.739C12.09,63.871,12.608,68.166,12.238,72.388Z" transform="translate(0.221 -10.099)"/>
      <path id="Path_34" data-name="Path 34" class="cls-1" d="M42.882,23.331A14.1,14.1,0,0,0,36.439.593,3.9,3.9,0,0,1,34.661,0H29.995c-.222.37-.593.3-.963.37A15.094,15.094,0,0,0,23.4,3.259,14.031,14.031,0,1,0,42.882,23.331Z" transform="translate(-4.575)"/>
      <path id="Path_35" data-name="Path 35" class="cls-1" d="M70.18,25.627A14.046,14.046,0,1,0,82.623.741,11.183,11.183,0,0,1,80.4,0H75.735c-.222.37-.667.37-1.037.444a13.431,13.431,0,0,0-6.37,3.629A14.02,14.02,0,0,0,70.18,25.627Z" transform="translate(-16.467)"/>
      <path id="Path_36" data-name="Path 36" class="cls-1" d="M97.2,30.261a15.528,15.528,0,0,1-2.963,3.259A19.826,19.826,0,0,1,89.2,36.409c3.333,1.555,6.444,3.407,9.925,4.518a4.432,4.432,0,0,0,3.926-.815,5,5,0,0,0-.518-8.518c-1.185-.741-2.592-1.185-3.851-1.852C97.94,29.372,97.569,29.669,97.2,30.261Z" transform="translate(-22.97 -7.671)"/>
      <path id="Path_37" data-name="Path 37" class="cls-1" d="M16.065,40.793c3.185-1.111,6.073-2.815,9.332-4.222-.148-.148-.222-.222-.3-.222a16.427,16.427,0,0,1-8.369-6.444c-.222-.37-.518-.3-.815-.148a27.1,27.1,0,0,0-4.148,2.074,4.944,4.944,0,0,0-1.926,6.222A5,5,0,0,0,16.065,40.793Z" transform="translate(-2.273 -7.686)"/>
    </g>
    <g id="Ellipse_17" data-name="Ellipse 17" class="cls-2" transform="translate(622.025 3997.365)">
      <ellipse class="cls-3" cx="100.56" cy="100.56" rx="100.56" ry="100.56"/>
      <ellipse class="cls-4" cx="100.56" cy="100.56" rx="95.56" ry="95.56"/>
    </g>
  </g>
</svg>
