<svg xmlns="http://www.w3.org/2000/svg" viewBox="2123 5652.912 34.09 34.091">
  <defs>
    <style>
      .cls-1 {
        fill: #85c226;
      }
    </style>
  </defs>
  <path id="telefone" class="cls-1" d="M468.187,387a6.029,6.029,0,0,0-3.942-5.6,5.4,5.4,0,0,0-1.807-.315c-7.533,0-15.078-.012-22.612.012a5.942,5.942,0,0,0-5.653,4.816c-.012.061.012.158-.073.182v24.067a5.078,5.078,0,0,1,.243.837,6.03,6.03,0,0,0,2.56,3.3,5.829,5.829,0,0,0,1.977.789c.061.012.158-.012.182.085h24.067c.291-.133.619-.146.922-.255a5.936,5.936,0,0,0,3.251-2.535,5.861,5.861,0,0,0,.886-3.251Q468.151,398.061,468.187,387Zm-7.46,17.8a5.507,5.507,0,0,1-.631,1.286,4.616,4.616,0,0,1-.291.388h0c-.024.024-.049.061-.073.085a.318.318,0,0,0-.061.073l-.085.085-.061.061a1.82,1.82,0,0,1-.158.133c-.012.012-.036.024-.049.036l-.109.073-.012.012c-.073.049-.158.1-.23.146-.012,0-.012.012-.024.012a.65.65,0,0,1-.133.061h0a3.373,3.373,0,0,1-2.111.17A15.661,15.661,0,0,1,451.216,405l-.655-.437-.146-.109a24.515,24.515,0,0,1-5.5-5.362c-.1-.133-.194-.255-.291-.388l-.036-.036c-.036-.049-.085-.109-.121-.158s-.085-.109-.121-.158c-.085-.109-.17-.206-.255-.315-.036,0-.085.012-.121.012a.454.454,0,0,1,.121-.012c-.024-.073-.049-.133-.073-.206s-.061-.133-.085-.194c-.206-.412-.5-.776-.716-1.177a12.341,12.341,0,0,1-1.65-4.707,2.9,2.9,0,0,1,.267-1.577h0c.036-.061.061-.133.1-.194h0a1.588,1.588,0,0,1,.121-.182h0a1.8,1.8,0,0,1,.121-.158l.012-.012a1.452,1.452,0,0,1,.133-.146l.024-.024.133-.133c.012-.012.024-.012.024-.024a1.314,1.314,0,0,0,.133-.121l.036-.036.146-.109a.168.168,0,0,1,.049-.036c.061-.049.133-.085.206-.133l.328-.182c1.456-.8,1.844-.607,2.584.728.085.158.182.315.279.461h0c.085.146.17.279.267.425.012.012.012.024.024.036a4.907,4.907,0,0,0,.279.412h0c.3.449.619.885.934,1.322.036.061.073.109.109.17.012.012.012.024.024.036.036.061.061.121.085.17h0l.073.182h0a1.684,1.684,0,0,1-.17,1.371c-.17.315-.328.631-.522.934a1.857,1.857,0,0,0,.23,2.511c.049.061.109.109.158.17h0c.085.1.182.194.267.291.121.146.231.291.352.425.049.061.109.121.158.182h0a20.08,20.08,0,0,0,2.026,2.038h0c.291.255.594.51.9.74.194.158.388.3.594.449.861.619,1.65.17,2.378-.315.886-.594,1.407-.716,2.159-.352h0a1.326,1.326,0,0,1,.133.073.261.261,0,0,1,.061.036c.036.024.073.036.109.061a.293.293,0,0,0,.061.036c.061.036.109.073.17.109.1.061.194.133.291.194h0c.934.619,1.88,1.213,2.814,1.82a1.012,1.012,0,0,1,.5,1.393Z" transform="translate(1688.9 5271.83)"/>
</svg>
